<svg id="Layer_1" data-name="Layer 1" xmlns="http://www.w3.org/2000/svg" xmlns:xlink="http://www.w3.org/1999/xlink" viewBox="0 0 199.1 54.21"><defs><linearGradient id="linear-gradient" x1="76.72" y1="53.93" x2="76.72" y2="2.2" gradientUnits="userSpaceOnUse"><stop offset="0" stop-color="#fff"/><stop offset="0.13" stop-color="#f6fcff"/><stop offset="0.34" stop-color="#def2ff"/><stop offset="0.5" stop-color="#c8eaff"/><stop offset="1" stop-color="#fff"/></linearGradient><linearGradient id="linear-gradient-2" x1="176.42" y1="50.87" x2="176.42" y2="13.73" xlink:href="#linear-gradient"/><linearGradient id="linear-gradient-3" x1="148.47" y1="53.48" x2="148.47" y2="2.29" xlink:href="#linear-gradient"/><linearGradient id="linear-gradient-4" x1="110.47" y1="52.73" x2="110.47" y2="9.99" gradientUnits="userSpaceOnUse"><stop offset="0" stop-color="#fff"/><stop offset="0.5" stop-color="#c8eaff"/><stop offset="1" stop-color="#fff"/></linearGradient><linearGradient id="linear-gradient-5" x1="131.3" y1="19.93" x2="131.3" y2="19.9" gradientUnits="userSpaceOnUse"><stop offset="0" stop-color="#fff"/><stop offset="0.08" stop-color="#fbfbfb"/><stop offset="0.16" stop-color="#eee"/><stop offset="0.24" stop-color="#dadada"/><stop offset="0.33" stop-color="#bdbdbd"/><stop offset="0.41" stop-color="#979797"/><stop offset="0.49" stop-color="#6a6a6a"/><stop offset="0.5" stop-color="#666"/><stop offset="0.51" stop-color="#6a6a6a"/><stop offset="0.59" stop-color="#979797"/><stop offset="0.67" stop-color="#bdbdbd"/><stop offset="0.76" stop-color="#dadada"/><stop offset="0.84" stop-color="#eee"/><stop offset="0.92" stop-color="#fbfbfb"/><stop offset="1" stop-color="#fff"/></linearGradient><linearGradient id="linear-gradient-6" x1="131.38" y1="19.98" x2="131.38" y2="19.92" xlink:href="#linear-gradient-5"/><linearGradient id="linear-gradient-7" x1="131.31" y1="19.98" x2="131.31" y2="19.91" xlink:href="#linear-gradient-5"/><linearGradient id="linear-gradient-8" x1="130.61" y1="21.05" x2="130.61" y2="21.04" xlink:href="#linear-gradient-5"/></defs><path d="M71.45,53.93a41.36,41.36,0,0,1-7.85-.77l.06-11.38a18.25,18.25,0,0,0,4.71.69,6.62,6.62,0,0,0,4.86-1.6A5.23,5.23,0,0,0,74.57,37V2.2H89.83v36C89.83,51.2,79.84,53.93,71.45,53.93Z" transform="translate(-1.25 -2.05)" style="fill:url(#linear-gradient)"/><path d="M89.68,2.35V38.16c0,12.91-9.91,15.62-18.23,15.62a40.2,40.2,0,0,1-7.7-.75L63.8,42a18.52,18.52,0,0,0,4.57.64,6.71,6.71,0,0,0,5-1.64,5.39,5.39,0,0,0,1.39-4V2.35h15m.3-.3H74.42V37c0,4.35-3.12,5.35-6,5.35a18.26,18.26,0,0,1-4.86-.74l-.07,11.7a40.26,40.26,0,0,0,8,.8C79.27,54.08,90,51.63,90,38.16V2.05Z" transform="translate(-1.25 -2.05)" style="fill:#da1a21"/><path d="M152.63,50.87c5.36-1.08,11.28-4.59,13.65-10l20.78,0a2,2,0,0,0,2.12-1.82,1.87,1.87,0,0,0-.56-1.43,1.84,1.84,0,0,0-1.29-.45H174a8.65,8.65,0,0,1-3.46-.68,9.5,9.5,0,0,1-3.2-2.25,9,9,0,0,1-.71-.88,11.2,11.2,0,0,1-1.28-2.3,10.47,10.47,0,0,1-.74-3.92V23.76a10.79,10.79,0,0,1,.11-1.53,10.39,10.39,0,0,1,2.62-5.56,9.39,9.39,0,0,1,3.2-2.26,8.66,8.66,0,0,1,3.47-.68h25.76a.16.16,0,0,1,.17.14v9.6a.17.17,0,0,1-.17.14H178.4a2,2,0,0,0-2.11,1.81,2,2,0,0,0,2.12,1.88H190.8a8.75,8.75,0,0,1,3.46.68,9.82,9.82,0,0,1,3.21,2.26,10.59,10.59,0,0,1,2,3.18,10.46,10.46,0,0,1,.74,3.91v3.4a10.46,10.46,0,0,1-.74,3.91,10.59,10.59,0,0,1-2,3.18,9.5,9.5,0,0,1-3.2,2.25,8.65,8.65,0,0,1-3.46.69Z" transform="translate(-1.25 -2.05)" style="fill:url(#linear-gradient-2)"/><path d="M199.81,13.87l0,9.59H178.4a2.15,2.15,0,0,0-2.26,2v.05a2.15,2.15,0,0,0,2.27,2H190.8a8.49,8.49,0,0,1,3.4.67,9.5,9.5,0,0,1,3.16,2.22,10.34,10.34,0,0,1,2.69,7v3.4a10.34,10.34,0,0,1-2.69,7,9.61,9.61,0,0,1-3.15,2.22,8.52,8.52,0,0,1-3.4.67l-36.87.11c5-1.35,10.21-4.72,12.44-9.71l20.68,0a2.15,2.15,0,0,0,2.27-2,2,2,0,0,0-.61-1.51,2,2,0,0,0-1.39-.49H174a8.52,8.52,0,0,1-3.4-.67,9.32,9.32,0,0,1-3.15-2.22,8.58,8.58,0,0,1-.7-.86,10.25,10.25,0,0,1-2-6.13V23.76a10.52,10.52,0,0,1,.11-1.51,10.13,10.13,0,0,1,.62-2.35,10.26,10.26,0,0,1,2-3.13,9.32,9.32,0,0,1,3.15-2.22,8.57,8.57,0,0,1,3.41-.67h25.78m0-.29H174a8.82,8.82,0,0,0-3.53.69,9.81,9.81,0,0,0-3.25,2.29,10.55,10.55,0,0,0-2.66,5.65,11.31,11.31,0,0,0-.11,1.55v3.39a10.5,10.5,0,0,0,.75,4,11,11,0,0,0,1.29,2.34,10.47,10.47,0,0,0,.73.89,9.71,9.71,0,0,0,3.25,2.29,8.77,8.77,0,0,0,3.52.69h13.31a1.75,1.75,0,0,1,1.19.4A1.72,1.72,0,0,1,189,39v0a1.86,1.86,0,0,1-2,1.67l-20.88,0C163.5,47,156.08,50.58,150.46,51l40.35-.12a8.75,8.75,0,0,0,3.52-.7,9.67,9.67,0,0,0,3.25-2.29,10.56,10.56,0,0,0,2.77-7.19v-3.4a10.56,10.56,0,0,0-2.77-7.19,9.61,9.61,0,0,0-3.26-2.29,8.75,8.75,0,0,0-3.52-.7H178.41a1.86,1.86,0,0,1-2-1.67v-.06a1.85,1.85,0,0,1,2-1.66h21.39a.3.3,0,0,0,.32-.29v-9.6a.3.3,0,0,0-.32-.29Z" transform="translate(-1.25 -2.05)" style="fill:#da1a21"/><path d="M129,53.48l.39-51.19h15.46V15.51a.13.13,0,0,0,.08.13.1.1,0,0,0,.07,0,.11.11,0,0,0,.08,0,14.68,14.68,0,0,1,7.64-1.94,14,14,0,0,1,10.13,4.15,15.89,15.89,0,0,1,3.05,4.38,21.5,21.5,0,0,1,1.91,11.24,21.81,21.81,0,0,1-1.64,7.26,16.16,16.16,0,0,1-13.66,10.16c-.41,0-.82,0-1.23,0a13.14,13.14,0,0,1-8-2.42.14.14,0,0,0-.09,0h-.06a.17.17,0,0,0-.09.13l-.15,4.85Z" transform="translate(-1.25 -2.05)" style="fill:url(#linear-gradient-3)"/><path d="M144.73,2.44V15.51a.3.3,0,0,0,.15.26.28.28,0,0,0,.15,0,.32.32,0,0,0,.16,0,14.54,14.54,0,0,1,7.56-1.92,13.85,13.85,0,0,1,10,4.11,15.51,15.51,0,0,1,3,4.33,21.37,21.37,0,0,1,1.9,11.17,21.87,21.87,0,0,1-1.63,7.22,16,16,0,0,1-13.53,10.06c-.45,0-.85,0-1.22,0a13,13,0,0,1-7.89-2.39.28.28,0,0,0-.18-.06.31.31,0,0,0-.13,0,.32.32,0,0,0-.17.26l-.14,4.7H129.18l.39-50.89h15.16m.3-.3H129.27l-.39,51.49h14.21l.15-5a13.31,13.31,0,0,0,8.07,2.45c.41,0,.83,0,1.24-.05a16.4,16.4,0,0,0,13.79-10.25A22.12,22.12,0,0,0,168,33.48a21.47,21.47,0,0,0-1.93-11.32A16.12,16.12,0,0,0,163,17.75a14.11,14.11,0,0,0-10.24-4.2,15,15,0,0,0-7.72,2V2.14Z" transform="translate(-1.25 -2.05)" style="fill:#da1a21"/><path d="M110.28,52.73c-12.75,0-21.66-8.68-21.66-21.11C88.62,18.68,97.57,10,110.89,10c12.62,0,21.44,8.62,21.44,21C132.33,46,121.25,52.73,110.28,52.73Z" transform="translate(-1.25 -2.05)" style="fill:url(#linear-gradient-4)"/><path d="M110.89,10.14c12.54,0,21.29,8.56,21.29,20.81,0,14.94-11,21.63-21.9,21.63-12.67,0-21.51-8.62-21.51-21,0-12.85,8.89-21.48,22.12-21.48m0-.3c-13.41,0-22.42,8.75-22.42,21.78,0,12.52,9,21.26,21.81,21.26,11,0,22.2-6.78,22.2-21.93,0-12.43-8.88-21.11-21.59-21.11Z" transform="translate(-1.25 -2.05)" style="fill:#da1a21"/><path d="M111.72,16.75h0a.33.33,0,0,0,.34-.32l.06-2.5a.34.34,0,0,0-.32-.34h0a.32.32,0,0,0-.33.32l-.07,2.51a.32.32,0,0,0,.32.33" transform="translate(-1.25 -2.05)" style="fill:#da1a21"/><path d="M88.52,19.88H1.3v1.19h19a44.6,44.6,0,0,0-19,10.75L25.82,43.21V25.28a5.52,5.52,0,0,1,3.83,3.33c1.59,3.4.58,3.66.26,3.93a3.75,3.75,0,0,1-1.4.34L31,34.05s7-1.32,5.4-6c-1.09-3.14-4.18-5.66-6.09-7H40V39.89l7.08,3.32V21.07H74.19V27c-3-5.45-7.62.08-7.62.08-.32-1.1-3.76-5.07-8.44-3.3a11.3,11.3,0,0,0-7.62,11.05l10.76,5,0-2.71c-3.54-.6-3.83-2.73-3.69-3.79s2.49-5.06,4.93-5.84a2.12,2.12,0,0,1,2.91,1.63,7.54,7.54,0,0,0-1.13,3.57l5.6,2.66a13.76,13.76,0,0,1,1.2-4.82c2-3.32,3.12-.77,3.12-.77V39.88l7,3.33V21.07h6.66c.22-.43.43-.83.64-1.19M18.73,38.53,9.55,34s2.66-2.66,9.18-6Zm6.56-13.32h0a2.72,2.72,0,0,1,.48.06,2.72,2.72,0,0,0-.48-.06" transform="translate(-1.25 -2.05)" style="stroke:#da1a21;stroke-linejoin:round;stroke-width:0.1px"/><path d="M169.15,19.91V21h-3.93V43.21l-7.07-3.32V21h-4V43.21l-7-3.33V29.71s-1.13-2.54-3.12.79a13.72,13.72,0,0,0-1.21,4.81l-5.6-2.66a7.64,7.64,0,0,1,1.14-3.57,2.12,2.12,0,0,0-2.91-1.63c-2.45.78-4.79,4.78-4.93,5.84s.14,3.19,3.69,3.79l0,2.71-10.77-5a11.32,11.32,0,0,1,7.63-11c4.68-1.77,8.12,2.2,8.44,3.29,0,0,4.64-5.52,7.62-.07V21H125.8c-2,.08-3.88.06-5.49.27V43.16L95.8,31.77a44.64,44.64,0,0,1,16-9.8c.51-.18,1-.35,1.48-.49h0a42.5,42.5,0,0,1,7-1.3c1-.12,2.17-.21,3.38-.26h7.54v0l0,.05h.12l0-.06h0a0,0,0,0,0,0,0Z" transform="translate(-1.25 -2.05)" style="stroke:#da1a21;stroke-linejoin:round;stroke-width:0.1px"/><path d="M131.36,19.92h-.12s0,0,0,0h.12a0,0,0,0,1,0,0" transform="translate(-1.25 -2.05)" style="stroke:#da1a21;stroke-linecap:round;stroke-linejoin:round;stroke-width:0.30000000000000004px;fill:url(#linear-gradient-5)"/><path d="M131.4,20l0-.06h0l0,.06" transform="translate(-1.25 -2.05)" style="stroke:#da1a21;stroke-linecap:round;stroke-linejoin:round;stroke-width:0.30000000000000004px;fill:url(#linear-gradient-6)"/><path d="M131.4,20h-.12l0-.05v0h.12a0,0,0,0,1,0,0h0l0,.06" transform="translate(-1.25 -2.05)" style="stroke:#da1a21;stroke-linecap:round;stroke-linejoin:round;stroke-width:0.30000000000000004px;fill:url(#linear-gradient-7)"/><path d="M102.64,18.46h0a.32.32,0,0,0,.11-.45l-1.34-2.12a.33.33,0,0,0-.45-.1h0a.32.32,0,0,0-.1.45l1.34,2.12a.32.32,0,0,0,.45.1" transform="translate(-1.25 -2.05)" style="fill:#da1a21"/><path d="M96.22,25.36h0a.34.34,0,0,0-.13-.46L94,23.64a.34.34,0,1,0-.35.58l2.14,1.26a.35.35,0,0,0,.47-.12" transform="translate(-1.25 -2.05)" style="fill:#da1a21"/><path d="M94.7,32.16v0a.33.33,0,0,0-.33-.33H91.84a.32.32,0,0,0-.32.33v0a.32.32,0,0,0,.32.32h2.53a.32.32,0,0,0,.33-.32" transform="translate(-1.25 -2.05)" style="fill:#da1a21"/><path d="M93.82,41.17h0a.33.33,0,0,1,.08-.47L96,39.22a.34.34,0,0,1,.47.08.35.35,0,0,1-.08.47l-2.08,1.48a.34.34,0,0,1-.47-.08" transform="translate(-1.25 -2.05)" style="fill:#da1a21"/><path d="M100.93,48.45h0a.33.33,0,0,1-.11-.46l1.33-2.08a.34.34,0,0,1,.47-.1.33.33,0,0,1,.1.46l-1.33,2.08a.33.33,0,0,1-.46.1" transform="translate(-1.25 -2.05)" style="fill:#da1a21"/><path d="M130.85,21h0Z" transform="translate(-1.25 -2.05)" style="fill:url(#linear-gradient-8)"/><path d="M130.85,21h0Z" transform="translate(-1.25 -2.05)" style="fill:#da1a21"/><path d="M130.43,19l-.24-.37a23.84,23.84,0,1,0-26,36v1.64l6.09-3.38-6.09-3.7v1.66a20.18,20.18,0,0,1,6-39.45,23.41,23.41,0,0,1,16.45,7.23L127,19c.16.18.33.36.48.54h3.31l-.33-.54" transform="translate(-1.25 -2.05)" style="fill:#da1a21"/><polygon points="109.56 26.98 109.46 27.12 109.35 27.27 108.37 28.62 108.36 28.62 108.34 28.66 108.33 28.66 108.12 28.46 107.71 28.07 107.42 27.8 106.95 27.35 106.94 27.35 103.15 23.76 101.34 22.04 100.5 21.24 98.69 19.54 100.83 21 101.83 21.69 103.62 22.91 108.3 26.11 108.89 26.52 108.91 26.53 109.29 26.79 109.56 26.98" style="fill:#da1a21"/><polygon points="109.7 26.46 115.08 21.59 112.64 28.58 109.7 26.46" style="fill:#da1a21"/><path d="M110.34,32.05l-6.23,11.31a.43.43,0,0,0,.19.59.47.47,0,0,0,.61-.18l6.23-11.32a.41.41,0,0,0-.18-.58.47.47,0,0,0-.62.18" transform="translate(-1.25 -2.05)" style="fill:#eb2426"/><path d="M111.06,34.58A3.77,3.77,0,0,1,110,34.3a2.89,2.89,0,0,1-.55-.29,2.74,2.74,0,0,1-.43-.3,3.78,3.78,0,0,1-1.35-2.9v-.06a3.72,3.72,0,0,1,1.2-2.7l.12-.11h0a3.74,3.74,0,0,1,2.37-.91h.09l.45,0a3.72,3.72,0,0,1,1.19.35h0a3.77,3.77,0,0,1,1.26,1h0a3.57,3.57,0,0,1,.55.89h0c0,.05,0,.1.05.14h0a3.62,3.62,0,0,1,.26,1.36,3.36,3.36,0,0,1,0,.56h0a3.79,3.79,0,0,1-2.08,2.81h0a3.72,3.72,0,0,1-1.66.39h-.34" transform="translate(-1.25 -2.05)" style="fill:#fff"/></svg>